# xmcd
#
# Track frame offsets:
#	150
#	41516
#	58846
#	109577
#	146615
#	195896
#	238545
#	244788
#	287596
#	334733
#
# Disc length: 4778 seconds
#
# Revision: 1
# Processed by: cddbd v1.5.2PL0 Copyright (c) Steve Scherf et al.
# Submitted via: audiograbber 1.83.01
#
DISCID=8812a80a
DTITLE=Grateful Dead - 80-06-29 Pauley Pavilion, UCLA, Los Angeles CA
DYEAR=1900
DGENRE=
TTITLE0=Feel Like A Stranger
TTITLE1=Don't Ease Me In
TTITLE2=Estimated Prophet
TTITLE3=Scarlet Begonias
TTITLE4=Fire On The Mountain
TTITLE5=Drums
TTITLE6=Space
TTITLE7=The Other One
TTITLE8=Black Peter
TTITLE9=Sugar Magnolia
EXTD=
EXTT0=
EXTT1=
EXTT2=
EXTT3=
EXTT4=
EXTT5=
EXTT6=
EXTT7=
EXTT8=
EXTT9=
PLAYORDER=
